<mxfile host="Electron" modified="2023-12-23T13:12:49.207Z" agent="Mozilla/5.0 (Windows NT 10.0; Win64; x64) AppleWebKit/537.36 (KHTML, like Gecko) draw.io/22.1.2 Chrome/114.0.5735.289 Electron/25.9.4 Safari/537.36" etag="HXmbPex6RZ6K5gNXePMs" version="22.1.2" type="device">
  <diagram name="Sida-1" id="oqmf2_8K3HHV5VRXJn7o">
    <mxGraphModel dx="1294" dy="952" grid="1" gridSize="10" guides="1" tooltips="1" connect="1" arrows="1" fold="1" page="1" pageScale="1" pageWidth="827" pageHeight="1169" math="0" shadow="0">
      <root>
        <mxCell id="0" />
        <mxCell id="1" parent="0" />
        <mxCell id="sXU6dsW9n-nS9SsGRoyy-1" value="" style="rounded=0;whiteSpace=wrap;html=1;fillColor=#F8B572;gradientColor=#F70202;strokeColor=#b85450;" vertex="1" parent="1">
          <mxGeometry x="711" y="301" width="40" height="40" as="geometry" />
        </mxCell>
        <mxCell id="sXU6dsW9n-nS9SsGRoyy-2" value="" style="rounded=0;whiteSpace=wrap;html=1;fillColor=#30DAE6;strokeColor=#996185;gradientColor=#24D55F;" vertex="1" parent="1">
          <mxGeometry x="830" y="381" width="40" height="40" as="geometry" />
        </mxCell>
        <mxCell id="sXU6dsW9n-nS9SsGRoyy-3" value="" style="rounded=0;whiteSpace=wrap;html=1;fillColor=#30DAE6;strokeColor=#996185;gradientColor=#24D55F;" vertex="1" parent="1">
          <mxGeometry x="910" y="381" width="40" height="40" as="geometry" />
        </mxCell>
        <mxCell id="sXU6dsW9n-nS9SsGRoyy-4" value="" style="rounded=0;whiteSpace=wrap;html=1;fillColor=#30DAE6;strokeColor=#996185;gradientColor=#24D55F;" vertex="1" parent="1">
          <mxGeometry x="1230" y="381" width="40" height="40" as="geometry" />
        </mxCell>
        <mxCell id="sXU6dsW9n-nS9SsGRoyy-5" value="" style="rounded=0;whiteSpace=wrap;html=1;fillColor=#dae8fc;gradientColor=#7ea6e0;strokeColor=#6c8ebf;" vertex="1" parent="1">
          <mxGeometry x="600" y="160" width="40" height="40" as="geometry" />
        </mxCell>
        <mxCell id="sXU6dsW9n-nS9SsGRoyy-6" value="" style="rounded=0;whiteSpace=wrap;html=1;fillColor=#dae8fc;gradientColor=#7ea6e0;strokeColor=#6c8ebf;" vertex="1" parent="1">
          <mxGeometry x="680" y="161" width="40" height="40" as="geometry" />
        </mxCell>
        <mxCell id="sXU6dsW9n-nS9SsGRoyy-7" value="" style="rounded=0;whiteSpace=wrap;html=1;fillColor=#ffcd28;gradientColor=#ffa500;strokeColor=#d79b00;" vertex="1" parent="1">
          <mxGeometry x="640" y="121" width="40" height="40" as="geometry" />
        </mxCell>
        <mxCell id="sXU6dsW9n-nS9SsGRoyy-8" value="" style="rounded=0;whiteSpace=wrap;html=1;fillColor=#ffcd28;gradientColor=#ffa500;strokeColor=#d79b00;" vertex="1" parent="1">
          <mxGeometry x="560" y="120" width="40" height="40" as="geometry" />
        </mxCell>
        <mxCell id="sXU6dsW9n-nS9SsGRoyy-9" value="" style="rounded=0;whiteSpace=wrap;html=1;fillColor=#dae8fc;gradientColor=#7ea6e0;strokeColor=#6c8ebf;" vertex="1" parent="1">
          <mxGeometry x="280" y="161" width="40" height="40" as="geometry" />
        </mxCell>
        <mxCell id="sXU6dsW9n-nS9SsGRoyy-10" value="" style="rounded=0;whiteSpace=wrap;html=1;fillColor=#dae8fc;gradientColor=#7ea6e0;strokeColor=#6c8ebf;" vertex="1" parent="1">
          <mxGeometry x="200" y="161" width="40" height="40" as="geometry" />
        </mxCell>
        <mxCell id="sXU6dsW9n-nS9SsGRoyy-11" value="" style="rounded=0;whiteSpace=wrap;html=1;fillColor=#ffcd28;gradientColor=#ffa500;strokeColor=#d79b00;" vertex="1" parent="1">
          <mxGeometry x="400" y="120" width="40" height="40" as="geometry" />
        </mxCell>
        <mxCell id="sXU6dsW9n-nS9SsGRoyy-12" value="" style="rounded=0;whiteSpace=wrap;html=1;fillColor=#ffcd28;gradientColor=#ffa500;strokeColor=#d79b00;" vertex="1" parent="1">
          <mxGeometry x="320" y="120" width="40" height="40" as="geometry" />
        </mxCell>
        <mxCell id="sXU6dsW9n-nS9SsGRoyy-13" value="" style="rounded=0;whiteSpace=wrap;html=1;fillColor=#ffcd28;gradientColor=#ffa500;strokeColor=#d79b00;" vertex="1" parent="1">
          <mxGeometry x="121" y="121" width="40" height="40" as="geometry" />
        </mxCell>
        <mxCell id="sXU6dsW9n-nS9SsGRoyy-14" value="" style="rounded=0;whiteSpace=wrap;html=1;fillColor=#d5e8d4;gradientColor=#97d077;strokeColor=#82b366;" vertex="1" parent="1">
          <mxGeometry x="81" y="80" width="40" height="40" as="geometry" />
        </mxCell>
        <mxCell id="sXU6dsW9n-nS9SsGRoyy-15" value="" style="endArrow=none;html=1;rounded=0;" edge="1" parent="1">
          <mxGeometry width="50" height="50" relative="1" as="geometry">
            <mxPoint x="80" y="250" as="sourcePoint" />
            <mxPoint x="780" y="250" as="targetPoint" />
          </mxGeometry>
        </mxCell>
        <mxCell id="sXU6dsW9n-nS9SsGRoyy-16" value="" style="endArrow=none;html=1;rounded=0;exitX=0.5;exitY=0;exitDx=0;exitDy=0;" edge="1" parent="1" source="sXU6dsW9n-nS9SsGRoyy-38">
          <mxGeometry width="50" height="50" relative="1" as="geometry">
            <mxPoint x="80" y="320" as="sourcePoint" />
            <mxPoint x="80" y="80" as="targetPoint" />
          </mxGeometry>
        </mxCell>
        <mxCell id="sXU6dsW9n-nS9SsGRoyy-17" value="" style="endArrow=classic;html=1;rounded=0;fillColor=#e51400;strokeColor=#B20000;" edge="1" parent="1">
          <mxGeometry width="50" height="50" relative="1" as="geometry">
            <mxPoint x="80" y="160" as="sourcePoint" />
            <mxPoint x="80" y="130" as="targetPoint" />
          </mxGeometry>
        </mxCell>
        <mxCell id="sXU6dsW9n-nS9SsGRoyy-18" value="" style="endArrow=classic;html=1;rounded=0;fillColor=#e51400;strokeColor=#B20000;" edge="1" parent="1">
          <mxGeometry width="50" height="50" relative="1" as="geometry">
            <mxPoint x="80" y="120" as="sourcePoint" />
            <mxPoint x="80" y="90" as="targetPoint" />
          </mxGeometry>
        </mxCell>
        <mxCell id="sXU6dsW9n-nS9SsGRoyy-19" value="Task 1" style="text;html=1;strokeColor=none;fillColor=none;align=center;verticalAlign=middle;whiteSpace=wrap;rounded=0;" vertex="1" parent="1">
          <mxGeometry x="20" y="90" width="60" height="30" as="geometry" />
        </mxCell>
        <mxCell id="sXU6dsW9n-nS9SsGRoyy-20" value="Task IA" style="text;html=1;strokeColor=none;fillColor=none;align=center;verticalAlign=middle;whiteSpace=wrap;rounded=0;" vertex="1" parent="1">
          <mxGeometry x="20" y="126" width="60" height="30" as="geometry" />
        </mxCell>
        <mxCell id="sXU6dsW9n-nS9SsGRoyy-21" value="" style="endArrow=none;html=1;rounded=0;" edge="1" parent="1">
          <mxGeometry width="50" height="50" relative="1" as="geometry">
            <mxPoint x="280" y="270" as="sourcePoint" />
            <mxPoint x="280" y="250" as="targetPoint" />
          </mxGeometry>
        </mxCell>
        <mxCell id="sXU6dsW9n-nS9SsGRoyy-22" value="" style="endArrow=none;html=1;rounded=0;" edge="1" parent="1">
          <mxGeometry width="50" height="50" relative="1" as="geometry">
            <mxPoint x="480" y="270" as="sourcePoint" />
            <mxPoint x="480" y="250" as="targetPoint" />
          </mxGeometry>
        </mxCell>
        <mxCell id="sXU6dsW9n-nS9SsGRoyy-23" value="" style="endArrow=none;html=1;rounded=0;" edge="1" parent="1">
          <mxGeometry width="50" height="50" relative="1" as="geometry">
            <mxPoint x="680" y="270" as="sourcePoint" />
            <mxPoint x="680" y="250" as="targetPoint" />
          </mxGeometry>
        </mxCell>
        <mxCell id="sXU6dsW9n-nS9SsGRoyy-24" value="" style="endArrow=none;html=1;rounded=0;" edge="1" parent="1">
          <mxGeometry width="50" height="50" relative="1" as="geometry">
            <mxPoint x="120" y="260" as="sourcePoint" />
            <mxPoint x="119.67000000000002" y="250" as="targetPoint" />
          </mxGeometry>
        </mxCell>
        <mxCell id="sXU6dsW9n-nS9SsGRoyy-25" value="" style="endArrow=none;html=1;rounded=0;" edge="1" parent="1">
          <mxGeometry width="50" height="50" relative="1" as="geometry">
            <mxPoint x="160" y="260" as="sourcePoint" />
            <mxPoint x="160" y="250" as="targetPoint" />
          </mxGeometry>
        </mxCell>
        <mxCell id="sXU6dsW9n-nS9SsGRoyy-26" value="" style="endArrow=none;html=1;rounded=0;" edge="1" parent="1">
          <mxGeometry width="50" height="50" relative="1" as="geometry">
            <mxPoint x="200" y="260" as="sourcePoint" />
            <mxPoint x="200" y="250" as="targetPoint" />
          </mxGeometry>
        </mxCell>
        <mxCell id="sXU6dsW9n-nS9SsGRoyy-27" value="" style="endArrow=none;html=1;rounded=0;" edge="1" parent="1">
          <mxGeometry width="50" height="50" relative="1" as="geometry">
            <mxPoint x="240" y="260" as="sourcePoint" />
            <mxPoint x="240" y="250" as="targetPoint" />
          </mxGeometry>
        </mxCell>
        <mxCell id="sXU6dsW9n-nS9SsGRoyy-28" value="" style="endArrow=none;html=1;rounded=0;" edge="1" parent="1">
          <mxGeometry width="50" height="50" relative="1" as="geometry">
            <mxPoint x="320" y="260" as="sourcePoint" />
            <mxPoint x="320" y="250" as="targetPoint" />
          </mxGeometry>
        </mxCell>
        <mxCell id="sXU6dsW9n-nS9SsGRoyy-29" value="" style="endArrow=none;html=1;rounded=0;" edge="1" parent="1">
          <mxGeometry width="50" height="50" relative="1" as="geometry">
            <mxPoint x="360" y="260" as="sourcePoint" />
            <mxPoint x="360" y="250" as="targetPoint" />
          </mxGeometry>
        </mxCell>
        <mxCell id="sXU6dsW9n-nS9SsGRoyy-30" value="" style="endArrow=none;html=1;rounded=0;" edge="1" parent="1">
          <mxGeometry width="50" height="50" relative="1" as="geometry">
            <mxPoint x="400" y="260" as="sourcePoint" />
            <mxPoint x="400" y="250" as="targetPoint" />
          </mxGeometry>
        </mxCell>
        <mxCell id="sXU6dsW9n-nS9SsGRoyy-31" value="" style="endArrow=none;html=1;rounded=0;" edge="1" parent="1">
          <mxGeometry width="50" height="50" relative="1" as="geometry">
            <mxPoint x="440" y="260" as="sourcePoint" />
            <mxPoint x="440" y="250" as="targetPoint" />
          </mxGeometry>
        </mxCell>
        <mxCell id="sXU6dsW9n-nS9SsGRoyy-32" value="" style="endArrow=none;html=1;rounded=0;" edge="1" parent="1">
          <mxGeometry width="50" height="50" relative="1" as="geometry">
            <mxPoint x="520" y="260" as="sourcePoint" />
            <mxPoint x="520" y="250" as="targetPoint" />
          </mxGeometry>
        </mxCell>
        <mxCell id="sXU6dsW9n-nS9SsGRoyy-33" value="" style="endArrow=none;html=1;rounded=0;" edge="1" parent="1">
          <mxGeometry width="50" height="50" relative="1" as="geometry">
            <mxPoint x="560" y="260" as="sourcePoint" />
            <mxPoint x="560" y="250" as="targetPoint" />
          </mxGeometry>
        </mxCell>
        <mxCell id="sXU6dsW9n-nS9SsGRoyy-34" value="" style="endArrow=none;html=1;rounded=0;" edge="1" parent="1">
          <mxGeometry width="50" height="50" relative="1" as="geometry">
            <mxPoint x="600" y="260" as="sourcePoint" />
            <mxPoint x="600" y="250" as="targetPoint" />
          </mxGeometry>
        </mxCell>
        <mxCell id="sXU6dsW9n-nS9SsGRoyy-35" value="" style="endArrow=none;html=1;rounded=0;" edge="1" parent="1">
          <mxGeometry width="50" height="50" relative="1" as="geometry">
            <mxPoint x="640" y="260" as="sourcePoint" />
            <mxPoint x="640" y="250" as="targetPoint" />
          </mxGeometry>
        </mxCell>
        <mxCell id="sXU6dsW9n-nS9SsGRoyy-36" value="" style="endArrow=none;html=1;rounded=0;" edge="1" parent="1">
          <mxGeometry width="50" height="50" relative="1" as="geometry">
            <mxPoint x="720" y="260" as="sourcePoint" />
            <mxPoint x="720" y="250" as="targetPoint" />
          </mxGeometry>
        </mxCell>
        <mxCell id="sXU6dsW9n-nS9SsGRoyy-37" value="" style="endArrow=none;html=1;rounded=0;" edge="1" parent="1">
          <mxGeometry width="50" height="50" relative="1" as="geometry">
            <mxPoint x="760" y="260" as="sourcePoint" />
            <mxPoint x="760" y="250" as="targetPoint" />
          </mxGeometry>
        </mxCell>
        <mxCell id="sXU6dsW9n-nS9SsGRoyy-38" value="&lt;font style=&quot;font-size: 8px;&quot;&gt;t = 0&lt;/font&gt;" style="text;html=1;strokeColor=none;fillColor=none;align=center;verticalAlign=middle;whiteSpace=wrap;rounded=0;" vertex="1" parent="1">
          <mxGeometry x="60" y="270" width="40" height="20" as="geometry" />
        </mxCell>
        <mxCell id="sXU6dsW9n-nS9SsGRoyy-39" value="&lt;font style=&quot;font-size: 8px;&quot;&gt;1&lt;/font&gt;" style="text;html=1;strokeColor=none;fillColor=none;align=center;verticalAlign=middle;whiteSpace=wrap;rounded=0;" vertex="1" parent="1">
          <mxGeometry x="110" y="270" width="20" height="20" as="geometry" />
        </mxCell>
        <mxCell id="sXU6dsW9n-nS9SsGRoyy-40" value="&lt;font style=&quot;font-size: 8px;&quot;&gt;2&lt;/font&gt;" style="text;html=1;strokeColor=none;fillColor=none;align=center;verticalAlign=middle;whiteSpace=wrap;rounded=0;" vertex="1" parent="1">
          <mxGeometry x="150" y="270" width="20" height="20" as="geometry" />
        </mxCell>
        <mxCell id="sXU6dsW9n-nS9SsGRoyy-41" value="&lt;font style=&quot;font-size: 8px;&quot;&gt;3&lt;/font&gt;" style="text;html=1;strokeColor=none;fillColor=none;align=center;verticalAlign=middle;whiteSpace=wrap;rounded=0;" vertex="1" parent="1">
          <mxGeometry x="190" y="270" width="20" height="20" as="geometry" />
        </mxCell>
        <mxCell id="sXU6dsW9n-nS9SsGRoyy-42" value="&lt;font style=&quot;font-size: 8px;&quot;&gt;4&lt;/font&gt;" style="text;html=1;strokeColor=none;fillColor=none;align=center;verticalAlign=middle;whiteSpace=wrap;rounded=0;" vertex="1" parent="1">
          <mxGeometry x="230" y="270" width="20" height="20" as="geometry" />
        </mxCell>
        <mxCell id="sXU6dsW9n-nS9SsGRoyy-43" value="&lt;font style=&quot;font-size: 8px;&quot;&gt;5&lt;/font&gt;" style="text;html=1;strokeColor=none;fillColor=none;align=center;verticalAlign=middle;whiteSpace=wrap;rounded=0;" vertex="1" parent="1">
          <mxGeometry x="270" y="270" width="20" height="20" as="geometry" />
        </mxCell>
        <mxCell id="sXU6dsW9n-nS9SsGRoyy-44" value="&lt;span style=&quot;font-size: 8px;&quot;&gt;6&lt;/span&gt;" style="text;html=1;strokeColor=none;fillColor=none;align=center;verticalAlign=middle;whiteSpace=wrap;rounded=0;" vertex="1" parent="1">
          <mxGeometry x="310" y="270" width="20" height="20" as="geometry" />
        </mxCell>
        <mxCell id="sXU6dsW9n-nS9SsGRoyy-45" value="&lt;span style=&quot;font-size: 8px;&quot;&gt;7&lt;/span&gt;" style="text;html=1;strokeColor=none;fillColor=none;align=center;verticalAlign=middle;whiteSpace=wrap;rounded=0;" vertex="1" parent="1">
          <mxGeometry x="350" y="270" width="20" height="20" as="geometry" />
        </mxCell>
        <mxCell id="sXU6dsW9n-nS9SsGRoyy-46" value="&lt;font style=&quot;font-size: 8px;&quot;&gt;8&lt;/font&gt;" style="text;html=1;strokeColor=none;fillColor=none;align=center;verticalAlign=middle;whiteSpace=wrap;rounded=0;" vertex="1" parent="1">
          <mxGeometry x="390" y="270" width="20" height="20" as="geometry" />
        </mxCell>
        <mxCell id="sXU6dsW9n-nS9SsGRoyy-47" value="&lt;font style=&quot;font-size: 8px;&quot;&gt;9&lt;/font&gt;" style="text;html=1;strokeColor=none;fillColor=none;align=center;verticalAlign=middle;whiteSpace=wrap;rounded=0;" vertex="1" parent="1">
          <mxGeometry x="430" y="270" width="20" height="20" as="geometry" />
        </mxCell>
        <mxCell id="sXU6dsW9n-nS9SsGRoyy-48" value="&lt;font style=&quot;font-size: 8px;&quot;&gt;10&lt;/font&gt;" style="text;html=1;strokeColor=none;fillColor=none;align=center;verticalAlign=middle;whiteSpace=wrap;rounded=0;" vertex="1" parent="1">
          <mxGeometry x="470" y="270" width="20" height="20" as="geometry" />
        </mxCell>
        <mxCell id="sXU6dsW9n-nS9SsGRoyy-49" value="&lt;font style=&quot;font-size: 8px;&quot;&gt;11&lt;/font&gt;" style="text;html=1;strokeColor=none;fillColor=none;align=center;verticalAlign=middle;whiteSpace=wrap;rounded=0;" vertex="1" parent="1">
          <mxGeometry x="510" y="270" width="20" height="20" as="geometry" />
        </mxCell>
        <mxCell id="sXU6dsW9n-nS9SsGRoyy-50" value="&lt;font style=&quot;font-size: 8px;&quot;&gt;12&lt;/font&gt;" style="text;html=1;strokeColor=none;fillColor=none;align=center;verticalAlign=middle;whiteSpace=wrap;rounded=0;" vertex="1" parent="1">
          <mxGeometry x="550" y="270" width="20" height="20" as="geometry" />
        </mxCell>
        <mxCell id="sXU6dsW9n-nS9SsGRoyy-51" value="&lt;font style=&quot;font-size: 8px;&quot;&gt;13&lt;/font&gt;" style="text;html=1;strokeColor=none;fillColor=none;align=center;verticalAlign=middle;whiteSpace=wrap;rounded=0;" vertex="1" parent="1">
          <mxGeometry x="590" y="270" width="20" height="20" as="geometry" />
        </mxCell>
        <mxCell id="sXU6dsW9n-nS9SsGRoyy-52" value="&lt;font style=&quot;font-size: 8px;&quot;&gt;14&lt;/font&gt;" style="text;html=1;strokeColor=none;fillColor=none;align=center;verticalAlign=middle;whiteSpace=wrap;rounded=0;" vertex="1" parent="1">
          <mxGeometry x="630" y="270" width="20" height="20" as="geometry" />
        </mxCell>
        <mxCell id="sXU6dsW9n-nS9SsGRoyy-53" value="&lt;font style=&quot;font-size: 8px;&quot;&gt;15&lt;/font&gt;" style="text;html=1;strokeColor=none;fillColor=none;align=center;verticalAlign=middle;whiteSpace=wrap;rounded=0;" vertex="1" parent="1">
          <mxGeometry x="670" y="270" width="20" height="20" as="geometry" />
        </mxCell>
        <mxCell id="sXU6dsW9n-nS9SsGRoyy-54" value="&lt;font style=&quot;font-size: 8px;&quot;&gt;16&lt;/font&gt;" style="text;html=1;strokeColor=none;fillColor=none;align=center;verticalAlign=middle;whiteSpace=wrap;rounded=0;" vertex="1" parent="1">
          <mxGeometry x="710" y="270" width="20" height="20" as="geometry" />
        </mxCell>
        <mxCell id="sXU6dsW9n-nS9SsGRoyy-55" value="&lt;font style=&quot;font-size: 8px;&quot;&gt;17&lt;/font&gt;" style="text;html=1;strokeColor=none;fillColor=none;align=center;verticalAlign=middle;whiteSpace=wrap;rounded=0;" vertex="1" parent="1">
          <mxGeometry x="750" y="270" width="20" height="20" as="geometry" />
        </mxCell>
        <mxCell id="sXU6dsW9n-nS9SsGRoyy-56" value="" style="rounded=0;whiteSpace=wrap;html=1;fillColor=#647687;strokeColor=#314354;fontColor=#ffffff;" vertex="1" parent="1">
          <mxGeometry x="240" y="201" width="65" height="40" as="geometry" />
        </mxCell>
        <mxCell id="sXU6dsW9n-nS9SsGRoyy-57" value="Msg1" style="text;html=1;strokeColor=none;fillColor=none;align=center;verticalAlign=middle;whiteSpace=wrap;rounded=0;" vertex="1" parent="1">
          <mxGeometry x="21" y="201" width="60" height="30" as="geometry" />
        </mxCell>
        <mxCell id="sXU6dsW9n-nS9SsGRoyy-59" value="Task 1 just misses Msg1" style="text;html=1;strokeColor=default;fillColor=none;align=center;verticalAlign=middle;whiteSpace=wrap;rounded=0;" vertex="1" parent="1">
          <mxGeometry x="133" y="40" width="97" height="37" as="geometry" />
        </mxCell>
        <mxCell id="sXU6dsW9n-nS9SsGRoyy-60" value="" style="rounded=0;whiteSpace=wrap;html=1;fillColor=#ffcd28;gradientColor=#ffa500;strokeColor=#d79b00;" vertex="1" parent="1">
          <mxGeometry x="161" y="121" width="40" height="40" as="geometry" />
        </mxCell>
        <mxCell id="sXU6dsW9n-nS9SsGRoyy-61" value="" style="endArrow=classic;html=1;rounded=0;fillColor=#e51400;strokeColor=#B20000;strokeWidth=1;" edge="1" parent="1">
          <mxGeometry width="50" height="50" relative="1" as="geometry">
            <mxPoint x="159.66" y="160" as="sourcePoint" />
            <mxPoint x="159.9" y="130" as="targetPoint" />
          </mxGeometry>
        </mxCell>
        <mxCell id="sXU6dsW9n-nS9SsGRoyy-62" value="" style="rounded=0;whiteSpace=wrap;html=1;fillColor=#ffcd28;gradientColor=#ffa500;strokeColor=#d79b00;" vertex="1" parent="1">
          <mxGeometry x="240" y="120" width="40" height="40" as="geometry" />
        </mxCell>
        <mxCell id="sXU6dsW9n-nS9SsGRoyy-63" value="" style="rounded=0;whiteSpace=wrap;html=1;fillColor=#ffcd28;gradientColor=#ffa500;strokeColor=#d79b00;" vertex="1" parent="1">
          <mxGeometry x="520" y="120" width="40" height="40" as="geometry" />
        </mxCell>
        <mxCell id="sXU6dsW9n-nS9SsGRoyy-64" value="" style="rounded=0;whiteSpace=wrap;html=1;fillColor=#d5e8d4;gradientColor=#97d077;strokeColor=#82b366;" vertex="1" parent="1">
          <mxGeometry x="480" y="80" width="40" height="40" as="geometry" />
        </mxCell>
        <mxCell id="sXU6dsW9n-nS9SsGRoyy-65" value="" style="endArrow=classic;html=1;rounded=0;fillColor=#e51400;strokeColor=#B20000;strokeWidth=1;" edge="1" parent="1">
          <mxGeometry width="50" height="50" relative="1" as="geometry">
            <mxPoint x="480" y="121" as="sourcePoint" />
            <mxPoint x="480" y="91" as="targetPoint" />
          </mxGeometry>
        </mxCell>
        <mxCell id="sXU6dsW9n-nS9SsGRoyy-66" value="" style="endArrow=classic;html=1;rounded=0;fillColor=#e51400;strokeColor=#B20000;strokeWidth=1;" edge="1" parent="1">
          <mxGeometry width="50" height="50" relative="1" as="geometry">
            <mxPoint x="479.30999999999995" y="160" as="sourcePoint" />
            <mxPoint x="479.30999999999995" y="130" as="targetPoint" />
          </mxGeometry>
        </mxCell>
        <mxCell id="sXU6dsW9n-nS9SsGRoyy-67" value="" style="endArrow=classic;html=1;rounded=0;fillColor=#e51400;strokeColor=#B20000;strokeWidth=1;" edge="1" parent="1">
          <mxGeometry width="50" height="50" relative="1" as="geometry">
            <mxPoint x="639.66" y="160" as="sourcePoint" />
            <mxPoint x="639.66" y="130" as="targetPoint" />
          </mxGeometry>
        </mxCell>
        <mxCell id="sXU6dsW9n-nS9SsGRoyy-68" value="" style="endArrow=none;html=1;rounded=0;" edge="1" parent="1">
          <mxGeometry width="50" height="50" relative="1" as="geometry">
            <mxPoint x="1270" y="536" as="sourcePoint" />
            <mxPoint x="1270" y="504" as="targetPoint" />
            <Array as="points" />
          </mxGeometry>
        </mxCell>
        <mxCell id="sXU6dsW9n-nS9SsGRoyy-69" value="" style="endArrow=none;html=1;rounded=0;" edge="1" parent="1">
          <mxGeometry width="50" height="50" relative="1" as="geometry">
            <mxPoint x="81" y="535" as="sourcePoint" />
            <mxPoint x="81" y="505" as="targetPoint" />
          </mxGeometry>
        </mxCell>
        <mxCell id="sXU6dsW9n-nS9SsGRoyy-70" value="" style="rounded=0;whiteSpace=wrap;html=1;fillColor=#647687;strokeColor=#314354;fontColor=#ffffff;" vertex="1" parent="1">
          <mxGeometry x="640" y="201" width="65" height="40" as="geometry" />
        </mxCell>
        <mxCell id="sXU6dsW9n-nS9SsGRoyy-71" value="" style="endArrow=classic;html=1;rounded=0;exitX=0;exitY=0.5;exitDx=0;exitDy=0;" edge="1" parent="1" source="sXU6dsW9n-nS9SsGRoyy-72">
          <mxGeometry width="50" height="50" relative="1" as="geometry">
            <mxPoint x="401" y="520" as="sourcePoint" />
            <mxPoint x="81" y="520" as="targetPoint" />
          </mxGeometry>
        </mxCell>
        <mxCell id="sXU6dsW9n-nS9SsGRoyy-72" value="&lt;font style=&quot;font-size: 18px;&quot;&gt;Reaction Delay =&amp;nbsp; 15.62 + 14 = 29.62ms&lt;/font&gt;" style="text;html=1;strokeColor=none;fillColor=none;align=center;verticalAlign=middle;whiteSpace=wrap;rounded=0;" vertex="1" parent="1">
          <mxGeometry x="508.69" y="500" width="327.62" height="40" as="geometry" />
        </mxCell>
        <mxCell id="sXU6dsW9n-nS9SsGRoyy-73" value="" style="endArrow=classic;html=1;rounded=0;exitX=1;exitY=0.5;exitDx=0;exitDy=0;" edge="1" parent="1" source="sXU6dsW9n-nS9SsGRoyy-72">
          <mxGeometry width="50" height="50" relative="1" as="geometry">
            <mxPoint x="419.5" y="520" as="sourcePoint" />
            <mxPoint x="1270.8" y="520" as="targetPoint" />
          </mxGeometry>
        </mxCell>
        <mxCell id="sXU6dsW9n-nS9SsGRoyy-74" value="" style="endArrow=classic;html=1;rounded=0;fillColor=#e51400;strokeColor=#B20000;strokeWidth=1;" edge="1" parent="1">
          <mxGeometry width="50" height="50" relative="1" as="geometry">
            <mxPoint x="239.99999999999994" y="161" as="sourcePoint" />
            <mxPoint x="239.99999999999994" y="131" as="targetPoint" />
          </mxGeometry>
        </mxCell>
        <mxCell id="sXU6dsW9n-nS9SsGRoyy-75" value="" style="endArrow=classic;html=1;rounded=0;fillColor=#e51400;strokeColor=#B20000;strokeWidth=1;" edge="1" parent="1">
          <mxGeometry width="50" height="50" relative="1" as="geometry">
            <mxPoint x="319.65999999999997" y="160" as="sourcePoint" />
            <mxPoint x="319.65999999999997" y="130" as="targetPoint" />
          </mxGeometry>
        </mxCell>
        <mxCell id="sXU6dsW9n-nS9SsGRoyy-76" value="" style="endArrow=classic;html=1;rounded=0;fillColor=#e51400;strokeColor=#B20000;strokeWidth=1;" edge="1" parent="1">
          <mxGeometry width="50" height="50" relative="1" as="geometry">
            <mxPoint x="399.65999999999997" y="161" as="sourcePoint" />
            <mxPoint x="399.65999999999997" y="131" as="targetPoint" />
          </mxGeometry>
        </mxCell>
        <mxCell id="sXU6dsW9n-nS9SsGRoyy-77" value="" style="endArrow=classic;html=1;rounded=0;fillColor=#e51400;strokeColor=#B20000;strokeWidth=1;" edge="1" parent="1">
          <mxGeometry width="50" height="50" relative="1" as="geometry">
            <mxPoint x="559.66" y="160" as="sourcePoint" />
            <mxPoint x="559.66" y="130" as="targetPoint" />
          </mxGeometry>
        </mxCell>
        <mxCell id="sXU6dsW9n-nS9SsGRoyy-78" value="" style="endArrow=classic;html=1;rounded=0;fillColor=#e51400;strokeColor=#B20000;strokeWidth=1;" edge="1" parent="1">
          <mxGeometry width="50" height="50" relative="1" as="geometry">
            <mxPoint x="719.31" y="161" as="sourcePoint" />
            <mxPoint x="719.31" y="131" as="targetPoint" />
          </mxGeometry>
        </mxCell>
        <mxCell id="sXU6dsW9n-nS9SsGRoyy-79" value="Task 2" style="text;html=1;strokeColor=none;fillColor=none;align=center;verticalAlign=middle;whiteSpace=wrap;rounded=0;" vertex="1" parent="1">
          <mxGeometry x="20" y="161" width="60" height="30" as="geometry" />
        </mxCell>
        <mxCell id="sXU6dsW9n-nS9SsGRoyy-80" value="" style="endArrow=classic;html=1;rounded=0;fillColor=#e51400;strokeColor=#B20000;strokeWidth=1;" edge="1" parent="1">
          <mxGeometry width="50" height="50" relative="1" as="geometry">
            <mxPoint x="79.70999999999995" y="196" as="sourcePoint" />
            <mxPoint x="79.70999999999995" y="166" as="targetPoint" />
          </mxGeometry>
        </mxCell>
        <mxCell id="sXU6dsW9n-nS9SsGRoyy-81" value="" style="endArrow=classic;html=1;rounded=0;fillColor=#e51400;strokeColor=#B20000;strokeWidth=1;" edge="1" parent="1">
          <mxGeometry width="50" height="50" relative="1" as="geometry">
            <mxPoint x="279.99999999999994" y="201" as="sourcePoint" />
            <mxPoint x="279.99999999999994" y="171" as="targetPoint" />
          </mxGeometry>
        </mxCell>
        <mxCell id="sXU6dsW9n-nS9SsGRoyy-82" value="" style="endArrow=classic;html=1;rounded=0;fillColor=#e51400;strokeColor=#B20000;strokeWidth=1;" edge="1" parent="1">
          <mxGeometry width="50" height="50" relative="1" as="geometry">
            <mxPoint x="479.42999999999995" y="202" as="sourcePoint" />
            <mxPoint x="479.42999999999995" y="172" as="targetPoint" />
          </mxGeometry>
        </mxCell>
        <mxCell id="sXU6dsW9n-nS9SsGRoyy-83" value="" style="endArrow=classic;html=1;rounded=0;fillColor=#e51400;strokeColor=#B20000;strokeWidth=1;" edge="1" parent="1">
          <mxGeometry width="50" height="50" relative="1" as="geometry">
            <mxPoint x="679.7099999999999" y="201" as="sourcePoint" />
            <mxPoint x="679.7099999999999" y="171" as="targetPoint" />
          </mxGeometry>
        </mxCell>
        <mxCell id="sXU6dsW9n-nS9SsGRoyy-84" value="" style="rounded=0;whiteSpace=wrap;html=1;fillColor=#30DAE6;strokeColor=#996185;gradientColor=#24D55F;" vertex="1" parent="1">
          <mxGeometry x="1310" y="381" width="40" height="40" as="geometry" />
        </mxCell>
        <mxCell id="sXU6dsW9n-nS9SsGRoyy-85" value="" style="rounded=0;whiteSpace=wrap;html=1;fillColor=#e6d0de;gradientColor=#d5739d;strokeColor=#996185;" vertex="1" parent="1">
          <mxGeometry x="1270" y="341" width="40" height="40" as="geometry" />
        </mxCell>
        <mxCell id="sXU6dsW9n-nS9SsGRoyy-86" value="" style="rounded=0;whiteSpace=wrap;html=1;fillColor=#e6d0de;gradientColor=#d5739d;strokeColor=#996185;" vertex="1" parent="1">
          <mxGeometry x="1190" y="340" width="40" height="40" as="geometry" />
        </mxCell>
        <mxCell id="sXU6dsW9n-nS9SsGRoyy-87" value="" style="rounded=0;whiteSpace=wrap;html=1;fillColor=#e6d0de;gradientColor=#d5739d;strokeColor=#996185;" vertex="1" parent="1">
          <mxGeometry x="1030" y="340" width="40" height="40" as="geometry" />
        </mxCell>
        <mxCell id="sXU6dsW9n-nS9SsGRoyy-88" value="" style="rounded=0;whiteSpace=wrap;html=1;fillColor=#e6d0de;gradientColor=#d5739d;strokeColor=#996185;" vertex="1" parent="1">
          <mxGeometry x="950" y="340" width="40" height="40" as="geometry" />
        </mxCell>
        <mxCell id="sXU6dsW9n-nS9SsGRoyy-89" value="" style="rounded=0;whiteSpace=wrap;html=1;fillColor=#e6d0de;gradientColor=#d5739d;strokeColor=#996185;" vertex="1" parent="1">
          <mxGeometry x="751" y="341" width="40" height="40" as="geometry" />
        </mxCell>
        <mxCell id="sXU6dsW9n-nS9SsGRoyy-90" value="" style="endArrow=none;html=1;rounded=0;" edge="1" parent="1">
          <mxGeometry width="50" height="50" relative="1" as="geometry">
            <mxPoint x="710" y="429" as="sourcePoint" />
            <mxPoint x="1410" y="429" as="targetPoint" />
          </mxGeometry>
        </mxCell>
        <mxCell id="sXU6dsW9n-nS9SsGRoyy-91" value="" style="endArrow=none;html=1;rounded=0;exitX=0.5;exitY=0;exitDx=0;exitDy=0;" edge="1" parent="1" source="sXU6dsW9n-nS9SsGRoyy-113">
          <mxGeometry width="50" height="50" relative="1" as="geometry">
            <mxPoint x="710" y="540" as="sourcePoint" />
            <mxPoint x="710" y="300" as="targetPoint" />
          </mxGeometry>
        </mxCell>
        <mxCell id="sXU6dsW9n-nS9SsGRoyy-92" value="" style="endArrow=classic;html=1;rounded=0;fillColor=#e51400;strokeColor=#B20000;" edge="1" parent="1">
          <mxGeometry width="50" height="50" relative="1" as="geometry">
            <mxPoint x="710" y="380" as="sourcePoint" />
            <mxPoint x="710" y="350" as="targetPoint" />
          </mxGeometry>
        </mxCell>
        <mxCell id="sXU6dsW9n-nS9SsGRoyy-93" value="" style="endArrow=classic;html=1;rounded=0;fillColor=#e51400;strokeColor=#B20000;" edge="1" parent="1">
          <mxGeometry width="50" height="50" relative="1" as="geometry">
            <mxPoint x="710" y="340" as="sourcePoint" />
            <mxPoint x="710" y="310" as="targetPoint" />
          </mxGeometry>
        </mxCell>
        <mxCell id="sXU6dsW9n-nS9SsGRoyy-94" value="Task 3" style="text;html=1;strokeColor=none;fillColor=none;align=center;verticalAlign=middle;whiteSpace=wrap;rounded=0;" vertex="1" parent="1">
          <mxGeometry x="650" y="310" width="60" height="30" as="geometry" />
        </mxCell>
        <mxCell id="sXU6dsW9n-nS9SsGRoyy-95" value="Task IB" style="text;html=1;strokeColor=none;fillColor=none;align=center;verticalAlign=middle;whiteSpace=wrap;rounded=0;" vertex="1" parent="1">
          <mxGeometry x="650" y="346" width="60" height="30" as="geometry" />
        </mxCell>
        <mxCell id="sXU6dsW9n-nS9SsGRoyy-96" value="" style="endArrow=none;html=1;rounded=0;" edge="1" parent="1">
          <mxGeometry width="50" height="50" relative="1" as="geometry">
            <mxPoint x="910" y="449" as="sourcePoint" />
            <mxPoint x="910" y="429" as="targetPoint" />
          </mxGeometry>
        </mxCell>
        <mxCell id="sXU6dsW9n-nS9SsGRoyy-97" value="" style="endArrow=none;html=1;rounded=0;" edge="1" parent="1">
          <mxGeometry width="50" height="50" relative="1" as="geometry">
            <mxPoint x="1110" y="449" as="sourcePoint" />
            <mxPoint x="1110" y="429" as="targetPoint" />
          </mxGeometry>
        </mxCell>
        <mxCell id="sXU6dsW9n-nS9SsGRoyy-98" value="" style="endArrow=none;html=1;rounded=0;" edge="1" parent="1">
          <mxGeometry width="50" height="50" relative="1" as="geometry">
            <mxPoint x="1310" y="449" as="sourcePoint" />
            <mxPoint x="1310" y="429" as="targetPoint" />
          </mxGeometry>
        </mxCell>
        <mxCell id="sXU6dsW9n-nS9SsGRoyy-99" value="" style="endArrow=none;html=1;rounded=0;" edge="1" parent="1">
          <mxGeometry width="50" height="50" relative="1" as="geometry">
            <mxPoint x="750" y="439" as="sourcePoint" />
            <mxPoint x="749.6700000000001" y="429" as="targetPoint" />
          </mxGeometry>
        </mxCell>
        <mxCell id="sXU6dsW9n-nS9SsGRoyy-100" value="" style="endArrow=none;html=1;rounded=0;" edge="1" parent="1">
          <mxGeometry width="50" height="50" relative="1" as="geometry">
            <mxPoint x="790" y="439" as="sourcePoint" />
            <mxPoint x="790" y="429" as="targetPoint" />
          </mxGeometry>
        </mxCell>
        <mxCell id="sXU6dsW9n-nS9SsGRoyy-101" value="" style="endArrow=none;html=1;rounded=0;" edge="1" parent="1">
          <mxGeometry width="50" height="50" relative="1" as="geometry">
            <mxPoint x="830" y="439" as="sourcePoint" />
            <mxPoint x="830" y="429" as="targetPoint" />
          </mxGeometry>
        </mxCell>
        <mxCell id="sXU6dsW9n-nS9SsGRoyy-102" value="" style="endArrow=none;html=1;rounded=0;" edge="1" parent="1">
          <mxGeometry width="50" height="50" relative="1" as="geometry">
            <mxPoint x="870" y="439" as="sourcePoint" />
            <mxPoint x="870" y="429" as="targetPoint" />
          </mxGeometry>
        </mxCell>
        <mxCell id="sXU6dsW9n-nS9SsGRoyy-103" value="" style="endArrow=none;html=1;rounded=0;" edge="1" parent="1">
          <mxGeometry width="50" height="50" relative="1" as="geometry">
            <mxPoint x="950" y="439" as="sourcePoint" />
            <mxPoint x="950" y="429" as="targetPoint" />
          </mxGeometry>
        </mxCell>
        <mxCell id="sXU6dsW9n-nS9SsGRoyy-104" value="" style="endArrow=none;html=1;rounded=0;" edge="1" parent="1">
          <mxGeometry width="50" height="50" relative="1" as="geometry">
            <mxPoint x="990" y="439" as="sourcePoint" />
            <mxPoint x="990" y="429" as="targetPoint" />
          </mxGeometry>
        </mxCell>
        <mxCell id="sXU6dsW9n-nS9SsGRoyy-105" value="" style="endArrow=none;html=1;rounded=0;" edge="1" parent="1">
          <mxGeometry width="50" height="50" relative="1" as="geometry">
            <mxPoint x="1030" y="439" as="sourcePoint" />
            <mxPoint x="1030" y="429" as="targetPoint" />
          </mxGeometry>
        </mxCell>
        <mxCell id="sXU6dsW9n-nS9SsGRoyy-106" value="" style="endArrow=none;html=1;rounded=0;" edge="1" parent="1">
          <mxGeometry width="50" height="50" relative="1" as="geometry">
            <mxPoint x="1070" y="439" as="sourcePoint" />
            <mxPoint x="1070" y="429" as="targetPoint" />
          </mxGeometry>
        </mxCell>
        <mxCell id="sXU6dsW9n-nS9SsGRoyy-107" value="" style="endArrow=none;html=1;rounded=0;" edge="1" parent="1">
          <mxGeometry width="50" height="50" relative="1" as="geometry">
            <mxPoint x="1150" y="439" as="sourcePoint" />
            <mxPoint x="1150" y="429" as="targetPoint" />
          </mxGeometry>
        </mxCell>
        <mxCell id="sXU6dsW9n-nS9SsGRoyy-108" value="" style="endArrow=none;html=1;rounded=0;" edge="1" parent="1">
          <mxGeometry width="50" height="50" relative="1" as="geometry">
            <mxPoint x="1190" y="439" as="sourcePoint" />
            <mxPoint x="1190" y="429" as="targetPoint" />
          </mxGeometry>
        </mxCell>
        <mxCell id="sXU6dsW9n-nS9SsGRoyy-109" value="" style="endArrow=none;html=1;rounded=0;" edge="1" parent="1">
          <mxGeometry width="50" height="50" relative="1" as="geometry">
            <mxPoint x="1230" y="439" as="sourcePoint" />
            <mxPoint x="1230" y="429" as="targetPoint" />
          </mxGeometry>
        </mxCell>
        <mxCell id="sXU6dsW9n-nS9SsGRoyy-110" value="" style="endArrow=none;html=1;rounded=0;" edge="1" parent="1">
          <mxGeometry width="50" height="50" relative="1" as="geometry">
            <mxPoint x="1270" y="439" as="sourcePoint" />
            <mxPoint x="1270" y="429" as="targetPoint" />
          </mxGeometry>
        </mxCell>
        <mxCell id="sXU6dsW9n-nS9SsGRoyy-111" value="" style="endArrow=none;html=1;rounded=0;" edge="1" parent="1">
          <mxGeometry width="50" height="50" relative="1" as="geometry">
            <mxPoint x="1350" y="439" as="sourcePoint" />
            <mxPoint x="1350" y="429" as="targetPoint" />
          </mxGeometry>
        </mxCell>
        <mxCell id="sXU6dsW9n-nS9SsGRoyy-112" value="" style="endArrow=none;html=1;rounded=0;" edge="1" parent="1">
          <mxGeometry width="50" height="50" relative="1" as="geometry">
            <mxPoint x="1390" y="439" as="sourcePoint" />
            <mxPoint x="1390" y="429" as="targetPoint" />
          </mxGeometry>
        </mxCell>
        <mxCell id="sXU6dsW9n-nS9SsGRoyy-113" value="&lt;font style=&quot;font-size: 8px;&quot;&gt;t = 0&lt;/font&gt;" style="text;html=1;strokeColor=none;fillColor=none;align=center;verticalAlign=middle;whiteSpace=wrap;rounded=0;" vertex="1" parent="1">
          <mxGeometry x="690" y="449" width="40" height="20" as="geometry" />
        </mxCell>
        <mxCell id="sXU6dsW9n-nS9SsGRoyy-114" value="&lt;font style=&quot;font-size: 8px;&quot;&gt;1&lt;/font&gt;" style="text;html=1;strokeColor=none;fillColor=none;align=center;verticalAlign=middle;whiteSpace=wrap;rounded=0;" vertex="1" parent="1">
          <mxGeometry x="740" y="449" width="20" height="20" as="geometry" />
        </mxCell>
        <mxCell id="sXU6dsW9n-nS9SsGRoyy-115" value="&lt;font style=&quot;font-size: 8px;&quot;&gt;2&lt;/font&gt;" style="text;html=1;strokeColor=none;fillColor=none;align=center;verticalAlign=middle;whiteSpace=wrap;rounded=0;" vertex="1" parent="1">
          <mxGeometry x="780" y="449" width="20" height="20" as="geometry" />
        </mxCell>
        <mxCell id="sXU6dsW9n-nS9SsGRoyy-116" value="&lt;font style=&quot;font-size: 8px;&quot;&gt;3&lt;/font&gt;" style="text;html=1;strokeColor=none;fillColor=none;align=center;verticalAlign=middle;whiteSpace=wrap;rounded=0;" vertex="1" parent="1">
          <mxGeometry x="820" y="449" width="20" height="20" as="geometry" />
        </mxCell>
        <mxCell id="sXU6dsW9n-nS9SsGRoyy-117" value="&lt;font style=&quot;font-size: 8px;&quot;&gt;4&lt;/font&gt;" style="text;html=1;strokeColor=none;fillColor=none;align=center;verticalAlign=middle;whiteSpace=wrap;rounded=0;" vertex="1" parent="1">
          <mxGeometry x="860" y="449" width="20" height="20" as="geometry" />
        </mxCell>
        <mxCell id="sXU6dsW9n-nS9SsGRoyy-118" value="&lt;font style=&quot;font-size: 8px;&quot;&gt;5&lt;/font&gt;" style="text;html=1;strokeColor=none;fillColor=none;align=center;verticalAlign=middle;whiteSpace=wrap;rounded=0;" vertex="1" parent="1">
          <mxGeometry x="900" y="449" width="20" height="20" as="geometry" />
        </mxCell>
        <mxCell id="sXU6dsW9n-nS9SsGRoyy-119" value="&lt;span style=&quot;font-size: 8px;&quot;&gt;6&lt;/span&gt;" style="text;html=1;strokeColor=none;fillColor=none;align=center;verticalAlign=middle;whiteSpace=wrap;rounded=0;" vertex="1" parent="1">
          <mxGeometry x="940" y="449" width="20" height="20" as="geometry" />
        </mxCell>
        <mxCell id="sXU6dsW9n-nS9SsGRoyy-120" value="&lt;span style=&quot;font-size: 8px;&quot;&gt;7&lt;/span&gt;" style="text;html=1;strokeColor=none;fillColor=none;align=center;verticalAlign=middle;whiteSpace=wrap;rounded=0;" vertex="1" parent="1">
          <mxGeometry x="980" y="449" width="20" height="20" as="geometry" />
        </mxCell>
        <mxCell id="sXU6dsW9n-nS9SsGRoyy-121" value="&lt;font style=&quot;font-size: 8px;&quot;&gt;8&lt;/font&gt;" style="text;html=1;strokeColor=none;fillColor=none;align=center;verticalAlign=middle;whiteSpace=wrap;rounded=0;" vertex="1" parent="1">
          <mxGeometry x="1020" y="449" width="20" height="20" as="geometry" />
        </mxCell>
        <mxCell id="sXU6dsW9n-nS9SsGRoyy-122" value="&lt;font style=&quot;font-size: 8px;&quot;&gt;9&lt;/font&gt;" style="text;html=1;strokeColor=none;fillColor=none;align=center;verticalAlign=middle;whiteSpace=wrap;rounded=0;" vertex="1" parent="1">
          <mxGeometry x="1060" y="449" width="20" height="20" as="geometry" />
        </mxCell>
        <mxCell id="sXU6dsW9n-nS9SsGRoyy-123" value="&lt;font style=&quot;font-size: 8px;&quot;&gt;10&lt;/font&gt;" style="text;html=1;strokeColor=none;fillColor=none;align=center;verticalAlign=middle;whiteSpace=wrap;rounded=0;" vertex="1" parent="1">
          <mxGeometry x="1100" y="449" width="20" height="20" as="geometry" />
        </mxCell>
        <mxCell id="sXU6dsW9n-nS9SsGRoyy-124" value="&lt;font style=&quot;font-size: 8px;&quot;&gt;11&lt;/font&gt;" style="text;html=1;strokeColor=none;fillColor=none;align=center;verticalAlign=middle;whiteSpace=wrap;rounded=0;" vertex="1" parent="1">
          <mxGeometry x="1140" y="449" width="20" height="20" as="geometry" />
        </mxCell>
        <mxCell id="sXU6dsW9n-nS9SsGRoyy-125" value="&lt;font style=&quot;font-size: 8px;&quot;&gt;12&lt;/font&gt;" style="text;html=1;strokeColor=none;fillColor=none;align=center;verticalAlign=middle;whiteSpace=wrap;rounded=0;" vertex="1" parent="1">
          <mxGeometry x="1180" y="449" width="20" height="20" as="geometry" />
        </mxCell>
        <mxCell id="sXU6dsW9n-nS9SsGRoyy-126" value="&lt;font style=&quot;font-size: 8px;&quot;&gt;13&lt;/font&gt;" style="text;html=1;strokeColor=none;fillColor=none;align=center;verticalAlign=middle;whiteSpace=wrap;rounded=0;" vertex="1" parent="1">
          <mxGeometry x="1220" y="449" width="20" height="20" as="geometry" />
        </mxCell>
        <mxCell id="sXU6dsW9n-nS9SsGRoyy-127" value="&lt;font style=&quot;font-size: 8px;&quot;&gt;14&lt;/font&gt;" style="text;html=1;strokeColor=none;fillColor=none;align=center;verticalAlign=middle;whiteSpace=wrap;rounded=0;" vertex="1" parent="1">
          <mxGeometry x="1260" y="449" width="20" height="20" as="geometry" />
        </mxCell>
        <mxCell id="sXU6dsW9n-nS9SsGRoyy-128" value="&lt;font style=&quot;font-size: 8px;&quot;&gt;15&lt;/font&gt;" style="text;html=1;strokeColor=none;fillColor=none;align=center;verticalAlign=middle;whiteSpace=wrap;rounded=0;" vertex="1" parent="1">
          <mxGeometry x="1300" y="449" width="20" height="20" as="geometry" />
        </mxCell>
        <mxCell id="sXU6dsW9n-nS9SsGRoyy-129" value="&lt;font style=&quot;font-size: 8px;&quot;&gt;16&lt;/font&gt;" style="text;html=1;strokeColor=none;fillColor=none;align=center;verticalAlign=middle;whiteSpace=wrap;rounded=0;" vertex="1" parent="1">
          <mxGeometry x="1340" y="449" width="20" height="20" as="geometry" />
        </mxCell>
        <mxCell id="sXU6dsW9n-nS9SsGRoyy-130" value="&lt;font style=&quot;font-size: 8px;&quot;&gt;17&lt;/font&gt;" style="text;html=1;strokeColor=none;fillColor=none;align=center;verticalAlign=middle;whiteSpace=wrap;rounded=0;" vertex="1" parent="1">
          <mxGeometry x="1380" y="449" width="20" height="20" as="geometry" />
        </mxCell>
        <mxCell id="sXU6dsW9n-nS9SsGRoyy-131" value="" style="rounded=0;whiteSpace=wrap;html=1;fillColor=#e6d0de;gradientColor=#d5739d;strokeColor=#996185;" vertex="1" parent="1">
          <mxGeometry x="791" y="341" width="40" height="40" as="geometry" />
        </mxCell>
        <mxCell id="sXU6dsW9n-nS9SsGRoyy-132" value="" style="endArrow=classic;html=1;rounded=0;fillColor=#e51400;strokeColor=#B20000;strokeWidth=1;" edge="1" parent="1">
          <mxGeometry width="50" height="50" relative="1" as="geometry">
            <mxPoint x="789.66" y="380" as="sourcePoint" />
            <mxPoint x="789.9" y="350" as="targetPoint" />
          </mxGeometry>
        </mxCell>
        <mxCell id="sXU6dsW9n-nS9SsGRoyy-133" value="" style="rounded=0;whiteSpace=wrap;html=1;fillColor=#e6d0de;gradientColor=#d5739d;strokeColor=#996185;" vertex="1" parent="1">
          <mxGeometry x="870" y="340" width="40" height="40" as="geometry" />
        </mxCell>
        <mxCell id="sXU6dsW9n-nS9SsGRoyy-134" value="" style="rounded=0;whiteSpace=wrap;html=1;fillColor=#e6d0de;gradientColor=#d5739d;strokeColor=#996185;" vertex="1" parent="1">
          <mxGeometry x="1150" y="340" width="40" height="40" as="geometry" />
        </mxCell>
        <mxCell id="sXU6dsW9n-nS9SsGRoyy-135" value="" style="rounded=0;whiteSpace=wrap;html=1;fillColor=#F8B572;gradientColor=#F70202;strokeColor=#b85450;" vertex="1" parent="1">
          <mxGeometry x="1110" y="300" width="40" height="40" as="geometry" />
        </mxCell>
        <mxCell id="sXU6dsW9n-nS9SsGRoyy-136" value="" style="endArrow=classic;html=1;rounded=0;fillColor=#e51400;strokeColor=#B20000;strokeWidth=1;" edge="1" parent="1">
          <mxGeometry width="50" height="50" relative="1" as="geometry">
            <mxPoint x="1110" y="341" as="sourcePoint" />
            <mxPoint x="1110" y="311" as="targetPoint" />
          </mxGeometry>
        </mxCell>
        <mxCell id="sXU6dsW9n-nS9SsGRoyy-137" value="" style="endArrow=classic;html=1;rounded=0;fillColor=#e51400;strokeColor=#B20000;strokeWidth=1;" edge="1" parent="1">
          <mxGeometry width="50" height="50" relative="1" as="geometry">
            <mxPoint x="1109.31" y="380" as="sourcePoint" />
            <mxPoint x="1109.31" y="350" as="targetPoint" />
          </mxGeometry>
        </mxCell>
        <mxCell id="sXU6dsW9n-nS9SsGRoyy-138" value="" style="endArrow=classic;html=1;rounded=0;fillColor=#e51400;strokeColor=#B20000;strokeWidth=1;" edge="1" parent="1">
          <mxGeometry width="50" height="50" relative="1" as="geometry">
            <mxPoint x="1269.6599999999999" y="380" as="sourcePoint" />
            <mxPoint x="1269.6599999999999" y="350" as="targetPoint" />
          </mxGeometry>
        </mxCell>
        <mxCell id="sXU6dsW9n-nS9SsGRoyy-139" value="" style="endArrow=classic;html=1;rounded=0;fillColor=#e51400;strokeColor=#B20000;strokeWidth=1;" edge="1" parent="1">
          <mxGeometry width="50" height="50" relative="1" as="geometry">
            <mxPoint x="870" y="381" as="sourcePoint" />
            <mxPoint x="870" y="351" as="targetPoint" />
          </mxGeometry>
        </mxCell>
        <mxCell id="sXU6dsW9n-nS9SsGRoyy-140" value="" style="endArrow=classic;html=1;rounded=0;fillColor=#e51400;strokeColor=#B20000;strokeWidth=1;" edge="1" parent="1">
          <mxGeometry width="50" height="50" relative="1" as="geometry">
            <mxPoint x="949.66" y="380" as="sourcePoint" />
            <mxPoint x="949.66" y="350" as="targetPoint" />
          </mxGeometry>
        </mxCell>
        <mxCell id="sXU6dsW9n-nS9SsGRoyy-141" value="" style="endArrow=classic;html=1;rounded=0;fillColor=#e51400;strokeColor=#B20000;strokeWidth=1;" edge="1" parent="1">
          <mxGeometry width="50" height="50" relative="1" as="geometry">
            <mxPoint x="1029.6599999999999" y="381" as="sourcePoint" />
            <mxPoint x="1029.6599999999999" y="351" as="targetPoint" />
          </mxGeometry>
        </mxCell>
        <mxCell id="sXU6dsW9n-nS9SsGRoyy-142" value="" style="endArrow=classic;html=1;rounded=0;fillColor=#e51400;strokeColor=#B20000;strokeWidth=1;" edge="1" parent="1">
          <mxGeometry width="50" height="50" relative="1" as="geometry">
            <mxPoint x="1189.6599999999999" y="380" as="sourcePoint" />
            <mxPoint x="1189.6599999999999" y="350" as="targetPoint" />
          </mxGeometry>
        </mxCell>
        <mxCell id="sXU6dsW9n-nS9SsGRoyy-143" value="" style="endArrow=classic;html=1;rounded=0;fillColor=#e51400;strokeColor=#B20000;strokeWidth=1;" edge="1" parent="1">
          <mxGeometry width="50" height="50" relative="1" as="geometry">
            <mxPoint x="1349.31" y="381" as="sourcePoint" />
            <mxPoint x="1349.31" y="351" as="targetPoint" />
          </mxGeometry>
        </mxCell>
        <mxCell id="sXU6dsW9n-nS9SsGRoyy-144" value="Task 4" style="text;html=1;strokeColor=none;fillColor=none;align=center;verticalAlign=middle;whiteSpace=wrap;rounded=0;" vertex="1" parent="1">
          <mxGeometry x="650" y="381" width="60" height="30" as="geometry" />
        </mxCell>
        <mxCell id="sXU6dsW9n-nS9SsGRoyy-145" value="" style="endArrow=classic;html=1;rounded=0;fillColor=#e51400;strokeColor=#B20000;strokeWidth=1;" edge="1" parent="1">
          <mxGeometry width="50" height="50" relative="1" as="geometry">
            <mxPoint x="709.7099999999999" y="416" as="sourcePoint" />
            <mxPoint x="709.7099999999999" y="386" as="targetPoint" />
          </mxGeometry>
        </mxCell>
        <mxCell id="sXU6dsW9n-nS9SsGRoyy-146" value="" style="endArrow=classic;html=1;rounded=0;fillColor=#e51400;strokeColor=#B20000;strokeWidth=1;" edge="1" parent="1">
          <mxGeometry width="50" height="50" relative="1" as="geometry">
            <mxPoint x="910" y="421" as="sourcePoint" />
            <mxPoint x="910" y="391" as="targetPoint" />
          </mxGeometry>
        </mxCell>
        <mxCell id="sXU6dsW9n-nS9SsGRoyy-147" value="" style="endArrow=classic;html=1;rounded=0;fillColor=#e51400;strokeColor=#B20000;strokeWidth=1;" edge="1" parent="1">
          <mxGeometry width="50" height="50" relative="1" as="geometry">
            <mxPoint x="1109.4299999999998" y="422" as="sourcePoint" />
            <mxPoint x="1109.4299999999998" y="392" as="targetPoint" />
          </mxGeometry>
        </mxCell>
        <mxCell id="sXU6dsW9n-nS9SsGRoyy-148" value="" style="endArrow=classic;html=1;rounded=0;fillColor=#e51400;strokeColor=#B20000;strokeWidth=1;" edge="1" parent="1">
          <mxGeometry width="50" height="50" relative="1" as="geometry">
            <mxPoint x="1309.71" y="421" as="sourcePoint" />
            <mxPoint x="1309.71" y="391" as="targetPoint" />
          </mxGeometry>
        </mxCell>
        <mxCell id="sXU6dsW9n-nS9SsGRoyy-150" value="" style="curved=1;endArrow=classic;html=1;rounded=0;strokeWidth=2;" edge="1" parent="1">
          <mxGeometry width="50" height="50" relative="1" as="geometry">
            <mxPoint x="80" y="70" as="sourcePoint" />
            <mxPoint x="710" y="250" as="targetPoint" />
            <Array as="points">
              <mxPoint x="110" y="110" />
              <mxPoint x="270" y="110" />
              <mxPoint x="420" y="100" />
              <mxPoint x="550" y="110" />
            </Array>
          </mxGeometry>
        </mxCell>
        <mxCell id="sXU6dsW9n-nS9SsGRoyy-152" value="" style="verticalLabelPosition=bottom;verticalAlign=top;html=1;shape=mxgraph.basic.flash;strokeColor=#000000;fillColor=#FF0000;rotation=30;" vertex="1" parent="1">
          <mxGeometry x="100" y="47" width="13.75" height="30" as="geometry" />
        </mxCell>
        <mxCell id="sXU6dsW9n-nS9SsGRoyy-154" value="" style="curved=1;endArrow=classic;html=1;rounded=0;strokeWidth=2;entryX=0.75;entryY=0;entryDx=0;entryDy=0;exitX=-0.163;exitY=-0.216;exitDx=0;exitDy=0;exitPerimeter=0;" edge="1" parent="1" source="sXU6dsW9n-nS9SsGRoyy-54" target="sXU6dsW9n-nS9SsGRoyy-127">
          <mxGeometry width="50" height="50" relative="1" as="geometry">
            <mxPoint x="711" y="290" as="sourcePoint" />
            <mxPoint x="1341" y="470" as="targetPoint" />
            <Array as="points">
              <mxPoint x="710" y="310" />
              <mxPoint x="741" y="330" />
              <mxPoint x="901" y="330" />
              <mxPoint x="1051" y="320" />
              <mxPoint x="1181" y="330" />
              <mxPoint x="1260" y="400" />
            </Array>
          </mxGeometry>
        </mxCell>
        <mxCell id="sXU6dsW9n-nS9SsGRoyy-155" value="Task 3 just misses Msg1" style="text;html=1;strokeColor=default;fillColor=none;align=center;verticalAlign=middle;whiteSpace=wrap;rounded=0;" vertex="1" parent="1">
          <mxGeometry x="763" y="261.5" width="97" height="37" as="geometry" />
        </mxCell>
        <mxCell id="sXU6dsW9n-nS9SsGRoyy-156" value="" style="verticalLabelPosition=bottom;verticalAlign=top;html=1;shape=mxgraph.basic.flash;strokeColor=#000000;fillColor=#FF0000;rotation=30;" vertex="1" parent="1">
          <mxGeometry x="730" y="268.5" width="13.75" height="30" as="geometry" />
        </mxCell>
      </root>
    </mxGraphModel>
  </diagram>
</mxfile>
